<?xml version="1.0" encoding="UTF-8" standalone="no"?>
<svg
   xmlns:dc="http://purl.org/dc/elements/1.1/"
   xmlns:cc="http://creativecommons.org/ns#"
   xmlns:rdf="http://www.w3.org/1999/02/22-rdf-syntax-ns#"
   xmlns:svg="http://www.w3.org/2000/svg"
   xmlns="http://www.w3.org/2000/svg"
   xmlns:sodipodi="http://sodipodi.sourceforge.net/DTD/sodipodi-0.dtd"
   xmlns:inkscape="http://www.inkscape.org/namespaces/inkscape"
   viewBox="0 -256 1870 1792"
   id="svg2"
   version="1.1"
   inkscape:version="0.48.3.1 r9886"
   width="100%"
   height="100%"
   sodipodi:docname="road_font_awesome.svg">
  <metadata
     id="metadata12">
    <rdf:RDF>
      <cc:Work
         rdf:about="">
        <dc:format>image/svg+xml</dc:format>
        <dc:type
           rdf:resource="http://purl.org/dc/dcmitype/StillImage" />
      </cc:Work>
    </rdf:RDF>
  </metadata>
  <defs
     id="defs10" />
  <sodipodi:namedview
     pagecolor="#ffffff"
     bordercolor="#666666"
     borderopacity="1"
     objecttolerance="10"
     gridtolerance="10"
     guidetolerance="10"
     inkscape:pageopacity="0"
     inkscape:pageshadow="2"
     inkscape:window-width="640"
     inkscape:window-height="480"
     id="namedview8"
     showgrid="false"
     inkscape:zoom="0.13169643"
     inkscape:cx="935"
     inkscape:cy="896"
     inkscape:window-x="0"
     inkscape:window-y="25"
     inkscape:window-maximized="0"
     inkscape:current-layer="svg2" />
  <g
     transform="matrix(1,0,0,-1,-22.779661,1270.2373)"
     id="g4">
    <path
       d="m 1111,540 v 4 l -24,320 q -1,13 -11,22.5 -10,9.5 -23,9.5 H 867 q -13,0 -23,-9.5 Q 834,877 833,864 L 809,544 v -4 q -1,-12 8,-20 9,-8 21,-8 h 244 q 12,0 21,8 9,8 8,20 z M 1870,73 q 0,-73 -46,-73 h -704 q 13,0 22,9.5 9,9.5 8,22.5 l -20,256 q -1,13 -11,22.5 -10,9.5 -23,9.5 H 824 q -13,0 -23,-9.5 Q 791,301 790,288 L 770,32 Q 769,19 778,9.5 787,0 800,0 H 96 q -46,0 -46,73 0,54 26,116 l 417,1044 q 8,19 26,33 18,14 38,14 h 339 q -13,0 -23,-9.5 -10,-9.5 -11,-22.5 l -15,-192 q -1,-14 8,-23 9,-9 22,-9 h 166 q 13,0 22,9 9,9 8,23 l -15,192 q -1,13 -11,22.5 -10,9.5 -23,9.5 h 339 q 20,0 38,-14 18,-14 26,-33 L 1844,189 q 26,-62 26,-116 z"
       id="path6"
       inkscape:connector-curvature="0"
       style="fill:currentColor" />
  </g>
</svg>
